<svg width="40" height="40" viewBox="0 0 40 40" fill="none" xmlns="http://www.w3.org/2000/svg">
<path d="M0 26.8412C0 26.8412 5.06296 35.6447 23.6909 26.0657C23.6909 26.0657 31.6353 21.009 36.9321 20.7004C36.9321 20.7004 35.1463 16.4743 30.3866 17.7629C30.3866 17.7629 31.147 14.0339 28.4461 12.1646C26.3117 10.8804 24.0092 11.0325 22.5436 12.7444C22.5436 12.7444 19.519 6.56624 12.2648 10.0818C8.53401 12.185 7.01059 17.5824 10.7885 22.6827C10.7885 22.6827 5.17234 27.9342 0 26.8412Z" fill="#6270EF"/>
<path d="M23.2314 28.9773C23.2314 28.9773 31.6988 23.3399 35.6821 23.4288C41.4574 23.5586 40.7539 29.7395 37.5639 30.2188C34.6745 30.6528 29.8472 28.3708 23.2323 28.9773H23.2314Z" fill="#6270EF" fill-opacity="0.5"/>
</svg>
