<svg width="24" height="24" viewBox="0 0 24 24" fill="none" xmlns="http://www.w3.org/2000/svg">
<path d="M2 5.99999L8.91303 9.91695C11.4616 11.361 12.5384 11.361 15.087 9.91695L22 5.99999M9.09882 3.53653C11.0393 3.48778 12.9607 3.48778 14.9012 3.53654C18.0497 3.61565 19.6239 3.6552 20.7551 4.79063C21.8862 5.92606 21.9189 7.45883 21.9842 10.5244C22.0053 11.51 22.0053 12.4899 21.9842 13.4756C21.9189 16.5411 21.8862 18.0739 20.7551 19.2093C19.6239 20.3448 18.0497 20.3843 14.9012 20.4634C12.9607 20.5122 11.0393 20.5122 9.09883 20.4634C5.95033 20.3843 4.37608 20.3448 3.24496 19.2093C2.11383 18.0739 2.08114 16.5411 2.01577 13.4756C1.99475 12.4899 1.99474 11.51 2.01576 10.5243C2.08114 7.45882 2.11382 5.92605 3.24495 4.79062C4.37608 3.65518 5.95033 3.61563 9.09882 3.53653Z" stroke="#0F1316" stroke-width="1.5" stroke-linejoin="round"/>
</svg>
